<svg xmlns="http://www.w3.org/2000/svg" viewBox="0 0 57.24 61.71"><defs><style>.cls-1{fill:#fff;}.cls-2{fill:#fa0;}</style></defs><g id="Tux"><path class="cls-1" d="M31.46,1.55a9,9,0,0,0-3.09.32,6,6,0,0,0-3.13,1.78,5.21,5.21,0,0,0-.95,1.16A9.91,9.91,0,0,0,23.1,8.47,14.23,14.23,0,0,0,23,11.33c0,1.93.23,7.84.36,9.61.1,1.18.06,1.3-.93,2.67-.34.49-.83,1.19-1.07,1.56-.66,1-1.59,2.33-2.35,3.34a14,14,0,0,0-2.67,4.91,41.26,41.26,0,0,1-2.65,6,5.3,5.3,0,0,0-.84,2.64,6.16,6.16,0,0,0,.17,2c.1.13.21.16.44.1l-.07.06a3.08,3.08,0,0,0-1,1.4s0,0,0,0a3.74,3.74,0,0,0-.32.79c-.38,1.07-.69,1.54-1.26,1.84a4,4,0,0,1-2.17.33c-1.3,0-1.58.06-2,.4-.69.58-.79,1.75-.32,3.36a5,5,0,0,1-.15,3.76,4.11,4.11,0,0,0-.35,1.48,1.73,1.73,0,0,0,.1.65,2.07,2.07,0,0,0,1,.8c.48.18,2.84.77,4.54,1.1a28.19,28.19,0,0,1,6,1.79,19.59,19.59,0,0,0,3.83,1.29,3.59,3.59,0,0,0,1.38-.13A5.4,5.4,0,0,0,24.16,62,6.5,6.5,0,0,1,28,60.22a44.83,44.83,0,0,1,5.7-.11c2.77,0,5.21,0,5.43,0,.51.07.71.23,1.14,1a3.53,3.53,0,0,0,2.93,1.93,11,11,0,0,0,2.42,0c1.2-.2,1.79-.56,3.15-1.91a15.22,15.22,0,0,1,5.1-3.48,14,14,0,0,0,2.75-1.56c1.52-1,1.81-1.35,1.81-2S58,53,56.61,52.08a7.84,7.84,0,0,1-2.48-2.24A3.17,3.17,0,0,1,53.56,48a4.42,4.42,0,0,0-.12-.84,1.9,1.9,0,0,0-.72-1.5c-.6-.31-.81-.22-1-.09a4.41,4.41,0,0,0,1.11-1.76c.39-1.15.31-2.44-.36-5.79A22.35,22.35,0,0,0,47.64,27.8a37,37,0,0,1-4.12-6.5,11.22,11.22,0,0,1-1.28-3,31.76,31.76,0,0,1-.65-5.45A27.62,27.62,0,0,0,41,7.72,8.18,8.18,0,0,0,35,2a10.25,10.25,0,0,0-3.58-.44Z" transform="translate(-1.15 -1.55)"/><path d="M21.22,63.23A19.28,19.28,0,0,1,17.39,62a29.42,29.42,0,0,0-6-1.8,40.12,40.12,0,0,1-4.53-1.09,2,2,0,0,1-1-.81,1.44,1.44,0,0,1-.1-.64,3.9,3.9,0,0,1,.35-1.48,5,5,0,0,0,.15-3.76c-.48-1.61-.37-2.78.32-3.37.39-.33.67-.39,2-.39a4,4,0,0,0,2.17-.33c.56-.31.88-.77,1.25-1.84.24-.7.4-1,.55-1s.23.3.23.67a8.93,8.93,0,0,1-.55,2,2,2,0,0,1-.76.86,4.82,4.82,0,0,1-2.84.24,2.3,2.3,0,0,0-1.49.08c-.43.26-.5.85-.19,1.58a13.31,13.31,0,0,1,.85,2.18,3.63,3.63,0,0,1,.09,1.64,3.56,3.56,0,0,1-.76,1.64,4.67,4.67,0,0,0-.52.87c-.09.31,0,.55.39.73s4.49,1.23,7.46,1.9c.91.24,2.58.64,3.7.93s2.29.53,2.59.59a4,4,0,0,0,2.4-.35A3.94,3.94,0,0,0,24.61,58a5.48,5.48,0,0,0-.7-2.84A38.21,38.21,0,0,0,21.33,51c-3.46-5.22-5-7-6.25-7.22a1.73,1.73,0,0,0-1.24.21c-.53.24-.71.25-.84.06a6.09,6.09,0,0,1-.18-2,5.57,5.57,0,0,1,.85-2.64,42.88,42.88,0,0,0,2.65-6A14.25,14.25,0,0,1,19,28.5c.77-1,1.7-2.31,2.35-3.32.26-.38.74-1.09,1.08-1.57,1-1.37,1-1.5.93-2.67-.14-1.76-.37-7.68-.37-9.61a15.33,15.33,0,0,1,.12-2.87,9.92,9.92,0,0,1,1.2-3.65,5.38,5.38,0,0,1,.94-1.17,6.07,6.07,0,0,1,3.14-1.77,9.21,9.21,0,0,1,3.09-.32A10.31,10.31,0,0,1,35,2,8.18,8.18,0,0,1,41,7.72a28.7,28.7,0,0,1,.63,5.15,31,31,0,0,0,.65,5.46,11.56,11.56,0,0,0,1.27,3,36.65,36.65,0,0,0,4.12,6.5A22.31,22.31,0,0,1,52.45,38c.67,3.36.75,4.64.37,5.8a4.75,4.75,0,0,1-1.26,1.93c-1.68,1.86-3.55,3-4.83,3a3.56,3.56,0,0,1-3-2.23c-.35-.79-.31-1.43-1.33-1.2a1.78,1.78,0,0,0-1,1.51,18,18,0,0,0,0,3.2c0,.24.18,1,.3,1.57a8.48,8.48,0,0,1,.22,2.3,12.46,12.46,0,0,1-.19,2.45,9.22,9.22,0,0,0-.17,2,2,2,0,0,0,.23,1.14A3.74,3.74,0,0,0,43,60.84a3.7,3.7,0,0,0,3.57.12,11.38,11.38,0,0,0,1.63-1.16,18.53,18.53,0,0,1,3.05-2.13,15.73,15.73,0,0,1,1.53-.59,13,13,0,0,0,3.92-1.66c.7-.57,1-1.18.9-1.64s-.81-1-2.15-1.32c-1-.27-1.26-.39-1.68-.85a4.29,4.29,0,0,1-.86-1.74,5.54,5.54,0,0,1-.06-2.45c.13-.34.25-.49.39-.49s.24.28.29,1a3.27,3.27,0,0,0,.58,1.87,7.84,7.84,0,0,0,2.48,2.24c1.39.92,1.77,1.36,1.77,2.06s-.3,1-1.81,2a14,14,0,0,1-2.75,1.56,15.38,15.38,0,0,0-5.11,3.47c-1.35,1.34-1.94,1.75-3.15,1.92a11.61,11.61,0,0,1-2.41,0,3.39,3.39,0,0,1-2.94-1.92c-.42-.76-.62-.94-1.13-1-.22,0-2.67-.06-5.44-.06-4.55,0-5.1.06-5.69.11A7,7,0,0,0,24.15,62a5.82,5.82,0,0,1-1.56,1.1,3.55,3.55,0,0,1-1.38.12Zm5.25-3.75a2.43,2.43,0,0,0,.43-.57,1.59,1.59,0,0,0,.21-.93,2.46,2.46,0,0,0-.81-2.12c-.44-.48-.51-.68-.25-.8s.54,0,1.08.49c1,.86,1.63,1,3.87,1a10.83,10.83,0,0,0,5-1,5.64,5.64,0,0,0,2.14-1.87c.5-.66.73-.89,1-1,.47-.2.72.18.71,1.1a4.84,4.84,0,0,1-.25,1.4,8.6,8.6,0,0,0-.54,3.5.68.68,0,0,0,.61.53c.18,0,.18,0,.23-.37,0-.19.12-.84.22-1.46s.21-1.39.26-1.74c.13-.92.22-3.77.22-6.87,0-2.67,0-2.68.15-3.09a1.52,1.52,0,0,1,.44-.69,1.89,1.89,0,0,1,1.43-.53l.5-.05.07-.35a1.93,1.93,0,0,1,1.61-1.53,4.84,4.84,0,0,1,1.28-.11,3.68,3.68,0,0,1,2.1.48c.39.19.73.25.73.14a3.5,3.5,0,0,0-.85-.8,5.18,5.18,0,0,0-.76-.42c-.3-.12-.41-.19-.42-.28a5.39,5.39,0,0,1,.19-.87,10.79,10.79,0,0,0,.46-3.16,10.13,10.13,0,0,0-1.44-5.34,11.19,11.19,0,0,0-3-4c-.25-.15-.55-.25-.55-.19s.21.33.46.69a30.41,30.41,0,0,1,3,5.14,13.62,13.62,0,0,1,.84,3.76c.17,2.12-.41,3.93-1.4,4.38a2.37,2.37,0,0,1-.9.14c-.77,0-.87,0-1.08-.42l-.14-.29,0-2.33c-.06-4-.25-4.64-2.33-8.4a8.33,8.33,0,0,1-1-2.5,12.29,12.29,0,0,0-2-4.56c-1.3-1.73-1.46-2.45-.95-4.06.34-1,.33-1.57,0-1.93s-.45-.35-1.62-.73c-1.78-.56-2.6-1.07-2.83-1.74a2.81,2.81,0,0,1,.35-2.25,1.37,1.37,0,0,1,1.23-.55,1.55,1.55,0,0,1,.79.15,2,2,0,0,1,.89.77,2.8,2.8,0,0,1,0,1.7c-.3.93-.29.84-.08,1A.9.9,0,0,0,37,16c.23-.26.3-.54.33-1.31a6.28,6.28,0,0,0-.4-2.45,2.45,2.45,0,0,0-2.37-2.09,2.12,2.12,0,0,0-2.18.52,4.55,4.55,0,0,0-1.09,3.66c.09.77.07.81-.36.67a7.28,7.28,0,0,0-1.74-.21c-.53,0-.58,0-.58-.61,0-2.42-.73-3.73-2.07-3.72a2.11,2.11,0,0,0-2,1.82,8.53,8.53,0,0,0,0,2.41c.25,1.44.79,2.15,1.22,1.59a1.83,1.83,0,0,0,.33-.64s-.14-.13-.3-.21a1,1,0,0,1-.4-.32,3,3,0,0,1-.35-2,1.28,1.28,0,0,1,1.66-.75,2.61,2.61,0,0,1,1,2.09,1.2,1.2,0,0,1-.66,1.11c-.26.19-.67.53-.93.75s-.57.49-.69.59a2,2,0,0,0-1,1.55c0,.34.14.53.57.74a2.68,2.68,0,0,1,1,1c.44.62,1,.82,2.14.82a14.38,14.38,0,0,0,5.19-1.23A6.45,6.45,0,0,0,35.09,19c.21-.32.46-.54.62-.54a.4.4,0,0,1,.38.4c0,.36-.55.65-2.44,1.29-.56.2-1.43.54-1.93.78a6.56,6.56,0,0,1-1.93.7,10.2,10.2,0,0,1-2.48,0c-.56-.08-.9,0-.87.11A7.43,7.43,0,0,0,28.06,23a4.06,4.06,0,0,0,1.78.05,27.54,27.54,0,0,0,4.63-2,2.12,2.12,0,0,1,.82-.34.41.41,0,0,1,.45.37c0,.22-.43.6-.9.79a8.26,8.26,0,0,0-1.83,1,16.45,16.45,0,0,0-2.37,1.73,2.26,2.26,0,0,1-1.91.8A1.59,1.59,0,0,1,27.35,25a10.17,10.17,0,0,1-1.47-1.83c-.26-.46-.83-1.11-1-1.11s-.11,0-.28.76a15,15,0,0,1-1.24,2.88,5.41,5.41,0,0,0-.88,3.52c0,1.44,0,1.32-.67,2.3a21.68,21.68,0,0,0-2.52,6,21.71,21.71,0,0,0-.37,4.36c0,.91,0,1.18-.23,1.31s-.48,0-1-.54a3.52,3.52,0,0,1-1.12-2.92,8.63,8.63,0,0,1,.25-2.17c.15-.54.15-.7,0-.67s-.45.67-.61,1.24a6.67,6.67,0,0,0-.15,1.42,5.19,5.19,0,0,0,.12,1.63,5.58,5.58,0,0,0,1,2.11,57.22,57.22,0,0,0,6.65,5.9,16.89,16.89,0,0,1,1.41,1.2c1.26,1.37,1,2.61-.7,3.57a4.3,4.3,0,0,0-.49.3s.22.32.49.67a11.16,11.16,0,0,1,1.75,3,2.67,2.67,0,0,1,0,1.51,1.09,1.09,0,0,0-.07.34s.15-.12.28-.2Zm1-43.35c-.18-.34.16-.64.74-.64.2,0,.38,0,.4.06s-.16.17-.33.17-.16.06-.25.25-.15.25-.3.27A.24.24,0,0,1,27.47,16.13Zm3.46-.25c-.34-.12-.6-.29-.54-.35a1.88,1.88,0,0,1,.44-.07c.52-.05.72,0,.72.26a.27.27,0,0,1-.11.24l-.13.05ZM18.81,32.2c.56-.58.71-.87.68-1.28s-.13-.39-.36-.33-.26.22-.42.75a1.56,1.56,0,0,1-.4.69c-.32.36-.38.49-.25.62s.24.07.75-.45ZM41.2,22.37a1.85,1.85,0,0,0,.36-.9.45.45,0,0,0-.18-.4.82.82,0,0,0-.23-.17,3.58,3.58,0,0,1-1.34-.79,2.17,2.17,0,0,0-.45-.37s-.08.07-.1.15a1.89,1.89,0,0,0,.27,1.17,2,2,0,0,0,.77.92c.52.43.71.51.9.39Zm-14-7.79c.07-.18,0-.32-.13-.91a1.46,1.46,0,0,0-.3-.6c-.17-.18-.2-.19-.33-.12s-.18.33.05.59a2.09,2.09,0,0,1,.38,1c.05.27.24.3.33.06Zm8.2-.17a1.54,1.54,0,0,0-.14-1.14,1.48,1.48,0,0,0-.93-.56c-.22,0-.26,0-.33.1s0,.2.25.29A1.46,1.46,0,0,1,35,14.26c0,.2.06.24.17.24a.29.29,0,0,0,.2-.09Zm.39-7.84a1.1,1.1,0,0,1,.85-.31c.51,0,.62-.06.62-.24s-1-1.14-1.37-1.21-.55.14-.63,1a1.07,1.07,0,0,1-.21.61c-.18.23-.21.36-.1.48S35.31,6.9,35.78,6.57Z" transform="translate(-1.15 -1.55)"/></g><g id="Server"><path class="cls-2" d="M20.31,25.22a1.94,1.94,0,0,0-2.17-2.06H3.37a2,2,0,0,0-2.22,2.22V62c0,.49,0,.49.49.49H20.1m-16-33.61H17.48v1.93H4.06ZM4,57.1c0-.28.13-.32.37-.32H17.63v2H4Zm13.61-4.19v2H4.06v-2" transform="translate(-1.15 -1.55)"/></g></svg>