<svg id="OSX" xmlns="http://www.w3.org/2000/svg" viewBox="0 0 50 59.36"><path id="path4" d="M56,48.58a32.82,32.82,0,0,1-3.19,5.74,28.77,28.77,0,0,1-4.11,5,8,8,0,0,1-5.28,2.33,13.16,13.16,0,0,1-4.88-1.16,14,14,0,0,0-5.26-1.17,14.39,14.39,0,0,0-5.4,1.17,14.5,14.5,0,0,1-4.67,1.22,7.44,7.44,0,0,1-5.4-2.39,30.42,30.42,0,0,1-4.3-5.14,35.37,35.37,0,0,1-4.55-9A33.13,33.13,0,0,1,7,34.35,19.7,19.7,0,0,1,9.58,24.06,15.25,15.25,0,0,1,15,18.59a14.58,14.58,0,0,1,7.31-2.06A17.05,17.05,0,0,1,28,17.85a18.28,18.28,0,0,0,4.48,1.31,26.24,26.24,0,0,0,5-1.55,16.49,16.49,0,0,1,6.75-1.2q7.5.6,11.25,5.92-6.7,4.07-6.64,11.36a12.52,12.52,0,0,0,4.12,9.44A13.56,13.56,0,0,0,57,45.83c-.33,1-.68,1.87-1,2.75ZM44.5,3.51a12.65,12.65,0,0,1-3.25,8.3c-2.61,3-5.76,4.82-9.18,4.54A8.16,8.16,0,0,1,32,15.22a13,13,0,0,1,3.44-8.39,13.32,13.32,0,0,1,4.2-3.15,12.6,12.6,0,0,1,4.8-1.36,11.85,11.85,0,0,1,.06,1.19Z" transform="translate(-7 -2.32)"/></svg>