<svg id="Layer_1" data-name="Layer 1" xmlns="http://www.w3.org/2000/svg" viewBox="0 0 58.12 58.33"><defs><style>.cls-1{fill:#0078d6;}</style></defs><g id="Layer_1-2" data-name="Layer_1"><g id="_26257872464" data-name=" 26257872464"><path id="path5" class="cls-1" d="M29.55,7.52C40,5.82,50.63,4.33,61.06,2.83V30.51c-10.43,0-21.08.21-31.51.21V7.52Z" transform="translate(-2.94 -2.83)"/><path id="path7" class="cls-1" d="M2.94,11.14c7.88-1.28,15.75-2.34,23.84-3.2V30.72c-8.09,0-16,.22-23.84.22V11.14Z" transform="translate(-2.94 -2.83)"/><path id="path29" class="cls-1" d="M2.94,33.28c7.88,0,15.75.21,23.84,0v23c-8.09-1.07-16-2.13-23.84-3.19Z" transform="translate(-2.94 -2.83)"/><path id="path31" class="cls-1" d="M29.55,33.49H61.06V61.17c-10.43-1.71-21.08-3-31.51-4.48V33.49Z" transform="translate(-2.94 -2.83)"/></g></g></svg>